<svg xmlns="http://www.w3.org/2000/svg" viewBox="0 0 100 100">
  <defs>
    <radialGradient id="bg" cx="50%" cy="50%" r="50%">
      <stop offset="0%" stop-color="#fce7f3"/>
      <stop offset="100%" stop-color="#a855f7"/>
    </radialGradient>
    <linearGradient id="sk" x1="30%" y1="0%" x2="70%" y2="100%">
      <stop offset="0%" stop-color="#fddcb5"/>
      <stop offset="100%" stop-color="#e8a070"/>
    </linearGradient>
    <linearGradient id="ng" x1="0%" y1="0%" x2="0%" y2="100%">
      <stop offset="0%" stop-color="#fda4d4"/>
      <stop offset="100%" stop-color="#db2777"/>
    </linearGradient>
  </defs>

  <circle cx="50" cy="50" r="48" fill="url(#bg)"/>

  <!-- Handled och handflata -->
  <path d="M34,93 C31,88 30,82 31,76 Q40,79 60,79 Q69,82 69,76 C70,82 69,88 66,93 Q50,97 34,93 Z" fill="url(#sk)"/>
  <path d="M31,76 C30,70 30,63 32,58 L68,58 C70,63 70,70 69,76 Q60,79 40,79 Q31,79 31,76 Z" fill="url(#sk)"/>
  <!-- Handknogar (subtila) -->
  <ellipse cx="37" cy="59" rx="4" ry="1.5" fill="#d4905a" opacity="0.3"/>
  <ellipse cx="46" cy="58" rx="4" ry="1.5" fill="#d4905a" opacity="0.3"/>
  <ellipse cx="55" cy="58" rx="4" ry="1.5" fill="#d4905a" opacity="0.3"/>
  <ellipse cx="63" cy="59" rx="3.5" ry="1.5" fill="#d4905a" opacity="0.3"/>

  <!-- Pekfinger -->
  <path d="M33,58 C32,50 31,41 32,33 C33,27 36,25 38,27 C40,30 41,50 41,58 Z" fill="url(#sk)" stroke="#c8885a" stroke-width="0.4"/>
  <!-- Ledveck -->
  <path d="M33,48 Q37,46 41,48" stroke="#c8885a" stroke-width="0.5" fill="none" opacity="0.5"/>
  <path d="M33,42 Q37,40 41,42" stroke="#c8885a" stroke-width="0.5" fill="none" opacity="0.4"/>
  <!-- Nagel -->
  <path d="M33.5,34 Q33,28 36,26.5 Q39,26 40.5,28.5 L40.5,34 Q37,35.5 33.5,34 Z" fill="url(#ng)"/>
  <path d="M35.5,29 Q37,27.5 39.5,28" stroke="white" stroke-width="0.9" fill="none" opacity="0.55" stroke-linecap="round"/>

  <!-- Långfinger -->
  <path d="M42,58 C41,49 41,38 42,29 C43,23 46,21 48,23 C50,26 50,49 50,58 Z" fill="url(#sk)" stroke="#c8885a" stroke-width="0.4"/>
  <path d="M42,48 Q46,46 50,48" stroke="#c8885a" stroke-width="0.5" fill="none" opacity="0.5"/>
  <path d="M42,41 Q46,39 50,41" stroke="#c8885a" stroke-width="0.5" fill="none" opacity="0.4"/>
  <path d="M42.5,30 Q42,24 45.5,22.5 Q49,22 49.5,25 L49.5,30 Q46,31.5 42.5,30 Z" fill="url(#ng)"/>
  <path d="M44.5,25 Q46.5,23.5 48.5,24" stroke="white" stroke-width="0.9" fill="none" opacity="0.55" stroke-linecap="round"/>

  <!-- Ringfinger -->
  <path d="M51,58 C50,49 50,40 51,32 C52,26 55,24 57,27 C58,31 59,49 58,58 Z" fill="url(#sk)" stroke="#c8885a" stroke-width="0.4"/>
  <path d="M51,48 Q54.5,46 58,48" stroke="#c8885a" stroke-width="0.5" fill="none" opacity="0.5"/>
  <path d="M51,42 Q54.5,40 58,42" stroke="#c8885a" stroke-width="0.5" fill="none" opacity="0.4"/>
  <path d="M51.5,33 Q51,27 54.5,25.5 Q58,25 58.5,28 L58.5,33 Q55,34.5 51.5,33 Z" fill="url(#ng)"/>
  <path d="M53.5,28 Q55.5,26.5 57.5,27" stroke="white" stroke-width="0.9" fill="none" opacity="0.55" stroke-linecap="round"/>

  <!-- Lillfinger -->
  <path d="M59,58 C59,51 59,44 60,37 C61,32 64,31 66,33 C67,37 67,51 66,58 Z" fill="url(#sk)" stroke="#c8885a" stroke-width="0.4"/>
  <path d="M59.5,49 Q62.5,47 66,49" stroke="#c8885a" stroke-width="0.5" fill="none" opacity="0.5"/>
  <path d="M59.5,44 Q62.5,42 66,44" stroke="#c8885a" stroke-width="0.5" fill="none" opacity="0.4"/>
  <path d="M60,38 Q59.5,33 62.5,32 Q65.5,31.5 66.5,34 L66.5,38 Q63.5,39.5 60,38 Z" fill="url(#ng)"/>
  <path d="M61.5,34 Q63,33 65,33.5" stroke="white" stroke-width="0.9" fill="none" opacity="0.55" stroke-linecap="round"/>

  <!-- Tumme -->
  <path d="M32,63 C28,61 21,57 18,54 C16,50 17,46 20,47 C24,49 29,55 33,59 Z" fill="url(#sk)" stroke="#c8885a" stroke-width="0.4"/>
  <path d="M19,52 Q19,48 22,47.5 Q25,47 25.5,50 L23,54 Q20.5,54.5 19,52 Z" fill="url(#ng)"/>
  <path d="M20,50 Q22,48.5 24.5,49" stroke="white" stroke-width="0.8" fill="none" opacity="0.5" stroke-linecap="round"/>

  <!-- Nagellacksflaska -->
  <rect x="7" y="68" width="8" height="20" rx="2" fill="#ec4899" stroke="#be185d" stroke-width="0.8"/>
  <rect x="8.5" y="65" width="5" height="5" rx="1" fill="#9d174d"/>
  <rect x="10" y="64" width="2.5" height="3" rx="0.5" fill="#be185d"/>
  <rect x="8.5" y="73" width="5" height="10" rx="0.5" fill="#fda4d4" opacity="0.45"/>
  <text x="72" y="17" font-size="10">✨</text>
</svg>